<?xml version="1.0" encoding="utf-8"?>
<!-- Generator: Adobe Illustrator 26.0.1, SVG Export Plug-In . SVG Version: 6.00 Build 0)  -->
<svg version="1.1" id="Layer_1" xmlns="http://www.w3.org/2000/svg" xmlns:xlink="http://www.w3.org/1999/xlink" x="0px" y="0px"
	 viewBox="0 0 379 379" style="enable-background:new 0 0 379 379;" xml:space="preserve">
<style type="text/css">
	.st0{display:none;fill:#FEFEFE;}
	.st1{fill:#A97735;}
	.st2{fill:#FEB900;}
	.st3{fill:#FEFEFE;}
</style>
<path class="st0" d="M282.6,17.02c25.13,0,50.27,0.01,75.4-0.02c0.88,0,1.12,0.16,1.12,1.09c-0.03,114.25-0.03,228.49,0,342.74
	c0,0.85-0.15,1.05-1.03,1.05c-112.37-0.03-224.73-0.03-337.1,0c-0.82,0-1.02-0.16-0.98-0.98c0.08-1.67,0.02-3.36,0.02-5.03
	c25.55,0,51.1,0,76.7,0c-0.83-2.2-1.66-4.23-2.37-6.3c-4.42-12.93-5.53-26.26-4.88-39.82c0.68-14.14,3.24-27.97,6.95-41.6
	c5.62-20.67,13.66-40.41,23.11-59.59c0.41-0.83,0.37-1.36-0.2-2.1c-9.83-12.91-21.25-24.28-33.6-34.74
	c-17.92-15.18-37.39-28.11-57.89-39.52c-2.57-1.43-5.12-2.93-7.81-4.14c0-13.59,0-27.18,0-40.77c0.3,0.1,0.61,0.17,0.89,0.3
	c20.32,9.77,39.89,20.86,58.5,33.61c21.67,14.85,41.76,31.51,59.2,51.26c0.14,0.16,0.23,0.43,0.56,0.36c1.8-2.87,3.57-5.76,5.4-8.62
	c18.15-28.43,38.77-54.94,61.7-79.67c23-24.8,47.95-47.4,75.66-66.87C282.18,17.48,282.53,17.39,282.6,17.02z M207.81,138.93
	c-0.1-0.03-0.19-0.07-0.29-0.1c-2.66,3.43-5.36,6.85-7.99,10.31c-18.48,24.31-34.86,49.95-48.25,77.44
	c-8.28,17-15.31,34.49-20.1,52.81c-3.78,14.43-6.29,29.03-5.16,44.04c0.46,6.11,1.55,12.08,4.07,17.72
	c5.45,12.2,14.88,18.92,28.11,20.18c6.2,0.59,12.34-0.24,18.38-1.75c11.21-2.79,21.58-7.54,31.58-13.21
	c19.83-11.23,37.09-25.61,52.25-42.57c12.27-13.73,22.98-28.55,31.37-44.98c6.2-12.15,11.16-24.73,12.49-38.47
	c0.41-4.27,0.29-8.53-1.05-12.68c-1.29-3.99-4.1-6.01-8.18-6.5c-4.93-0.6-9.68,0.12-14.39,1.58c-11.61,3.59-23.4,5.51-35.53,3.26
	c-14.92-2.77-26.15-10.71-33.02-24.35c-5.79-11.5-6.56-23.79-5.16-36.35C207.18,143.17,207.52,141.05,207.81,138.93z M258.73,355.86
	c0.48,0,0.64,0,0.8,0c23.58,0,47.16,0,70.74,0c1.93,0,3.83-0.2,5.7-0.62c13.76-3.04,22.89-14.51,22.89-28.77
	c0-102.27,0-204.54,0-306.81c0-0.43,0-0.86,0-1.37c-0.49,0.11-0.88,0.18-1.26,0.29c-7.28,1.99-14.14,4.98-20.73,8.6
	c-10.86,5.98-20.84,13.21-30.14,21.37c-20.37,17.87-37.39,38.46-50.22,62.4c-6.48,12.09-11.58,24.71-13.35,38.45
	c-0.58,4.54-0.6,9.09,0.62,13.56c0.98,3.58,3.05,6.11,6.81,6.97c1.44,0.33,2.91,0.5,4.39,0.54c4.57,0.12,8.91-0.97,13.26-2.27
	c10.82-3.23,21.82-4.84,33.1-2.98c9.37,1.55,17.7,5.33,24.6,11.95c9.25,8.88,13.5,20.05,14.67,32.56c0.82,8.74-0.02,17.39-1.8,25.96
	c-2.75,13.3-7.57,25.87-13.67,37.94c-15.03,29.72-35.6,55.13-60.49,77.13C262.78,352.45,260.85,354.04,258.73,355.86z"/>
<path class="st1" d="M282.6,17.02c-0.07,0.37-0.42,0.46-0.67,0.63c-27.71,19.48-52.66,42.07-75.66,66.87
	c-22.93,24.73-43.55,51.24-61.7,79.67c-1.83,2.86-3.6,5.75-5.4,8.62c-0.33,0.07-0.42-0.2-0.56-0.36
	c-17.43-19.74-37.53-36.41-59.2-51.26c-18.61-12.75-38.18-23.84-58.5-33.61c-0.28-0.13-0.59-0.2-0.89-0.3c0-14.87,0-29.74,0-44.6
	c0.27-0.14,0.21-0.4,0.24-0.63C21.91,30.17,30.41,20.71,42,17.83c1.22-0.3,2.51-0.31,3.68-0.81
	C124.66,17.02,203.63,17.02,282.6,17.02z M159.35,109.44c-0.05-14.3-11.6-25.79-25.9-25.75c-14.18,0.04-25.69,11.64-25.66,25.87
	c0.03,14.24,11.66,25.75,25.96,25.69C147.87,135.19,159.4,123.57,159.35,109.44z"/>
<path class="st2" d="M20.03,128.05c2.69,1.21,5.24,2.71,7.81,4.14c20.5,11.41,39.97,24.34,57.89,39.52
	c12.35,10.46,23.77,21.83,33.6,34.74c0.57,0.75,0.61,1.27,0.2,2.1c-9.45,19.19-17.49,38.93-23.11,59.59
	c-3.71,13.63-6.27,27.46-6.95,41.6c-0.65,13.56,0.46,26.89,4.88,39.82c0.71,2.07,1.54,4.1,2.37,6.3c-25.61,0-51.15,0-76.7,0
	C20.03,279.92,20.03,203.99,20.03,128.05z"/>
<path class="st3" d="M45.69,17.02c-1.18,0.49-2.46,0.5-3.68,0.81c-11.6,2.88-20.1,12.35-21.73,24.23c-0.03,0.23,0.02,0.49-0.24,0.63
	c0-8.27,0.01-16.55-0.02-24.82c0-0.72,0.14-0.86,0.86-0.86C29.14,17.03,37.41,17.02,45.69,17.02z"/>
<path class="st1" d="M207.81,138.93c-0.29,2.12-0.63,4.24-0.86,6.37c-1.4,12.56-0.63,24.85,5.16,36.35
	c6.87,13.64,18.1,21.58,33.02,24.35c12.13,2.25,23.93,0.33,35.53-3.26c4.71-1.46,9.46-2.18,14.39-1.58c4.08,0.5,6.89,2.51,8.18,6.5
	c1.34,4.15,1.46,8.41,1.05,12.68c-1.32,13.73-6.28,26.32-12.49,38.47c-8.38,16.43-19.1,31.26-31.37,44.98
	c-15.16,16.96-32.42,31.34-52.25,42.57c-10,5.66-20.38,10.42-31.58,13.21c-6.04,1.5-12.18,2.34-18.38,1.75
	c-13.23-1.26-22.66-7.98-28.11-20.18c-2.52-5.65-3.61-11.61-4.07-17.72c-1.12-15.01,1.39-29.61,5.16-44.04
	c4.79-18.33,11.82-35.81,20.1-52.81c13.39-27.49,29.76-53.12,48.25-77.44c2.63-3.46,5.32-6.87,7.99-10.31
	C207.62,138.86,207.71,138.9,207.81,138.93z"/>
<path class="st2" d="M258.73,355.86c2.12-1.82,4.05-3.42,5.92-5.07c24.89-22,45.46-47.41,60.49-77.13
	c6.11-12.08,10.92-24.65,13.67-37.94c1.77-8.57,2.62-17.22,1.8-25.96c-1.18-12.51-5.42-23.68-14.67-32.56
	c-6.9-6.63-15.23-10.41-24.6-11.95c-11.28-1.86-22.29-0.26-33.1,2.98c-4.35,1.3-8.69,2.39-13.26,2.27
	c-1.48-0.04-2.95-0.21-4.39-0.54c-3.76-0.86-5.83-3.39-6.81-6.97c-1.22-4.47-1.2-9.02-0.62-13.56c1.77-13.74,6.87-26.36,13.35-38.45
	c12.82-23.94,29.84-44.53,50.22-62.4c9.31-8.16,19.28-15.4,30.14-21.37c6.59-3.63,13.45-6.62,20.73-8.6
	c0.38-0.1,0.77-0.18,1.26-0.29c0,0.5,0,0.94,0,1.37c0,102.27,0,204.54,0,306.81c0,14.25-9.13,25.73-22.89,28.77
	c-1.88,0.41-3.78,0.62-5.7,0.62c-23.58,0-47.16,0-70.74,0C259.37,355.86,259.21,355.86,258.73,355.86z M354.06,131.05
	c-0.03-14.3-11.58-25.81-25.86-25.79c-14.19,0.03-25.71,11.61-25.69,25.83c0.02,14.25,11.63,25.77,25.92,25.72
	C342.56,156.78,354.09,145.18,354.06,131.05z"/>
<path class="st0" d="M159.35,109.44c0.05,14.13-11.48,25.75-25.6,25.81c-14.3,0.06-25.93-11.45-25.96-25.69
	c-0.03-14.23,11.47-25.83,25.66-25.87C147.74,83.65,159.3,95.14,159.35,109.44z"/>
<path class="st0" d="M354.06,131.05c0.03,14.12-11.5,25.73-25.63,25.77c-14.29,0.05-25.9-11.47-25.92-25.72
	c-0.02-14.22,11.5-25.81,25.69-25.83C342.48,105.24,354.03,116.75,354.06,131.05z"/>
</svg>
