<?xml version="1.0" encoding="utf-8"?>
<!-- Generator: Adobe Illustrator 26.0.1, SVG Export Plug-In . SVG Version: 6.00 Build 0)  -->
<svg version="1.1" id="Layer_1" xmlns="http://www.w3.org/2000/svg" xmlns:xlink="http://www.w3.org/1999/xlink" x="0px" y="0px"
	 viewBox="0 0 3427.4 1245.96" style="enable-background:new 0 0 3427.4 1245.96;" xml:space="preserve">
<style type="text/css">
	.st0{display:none;fill:#FEFEFE;}
	.st1{fill:#A97735;}
	.st2{fill:#FEB901;}
</style>
<g>
	<path class="st0" d="M119.5,437.34c0-40.99,0-81.98,0-122.97c2.37-0.35,4.08,1.24,5.96,2.15c64.43,31.18,126.33,66.73,184.93,107.9
		c60.32,42.38,116.43,89.59,165.34,144.98c2.86,3.24,3.62,1.97,5.31-0.8c44.44-72.6,94.58-141.08,149.66-205.95
		c66.39-78.19,138.85-150.18,219.18-214.11c20.07-15.98,40.82-31.05,61.56-46.12c807.71,0,1615.42,0,2423.13-0.12
		c4.2,0,4.78,1.03,4.78,4.94c-0.11,343.07-0.11,686.13,0.01,1029.2c0,4.04-0.78,4.87-4.85,4.87
		c-1070.17-0.11-2140.34-0.11-3210.51-0.02c-3.75,0-4.93-0.82-4.58-4.6c0.38-4.13,0.09-8.32,0.09-12.49
		c9.16-0.08,18.31-0.23,27.47-0.24c66.31-0.02,132.62-0.04,198.93,0.06c4.19,0.01,5.12-0.59,3.31-4.85
		c-13.84-32.63-19.64-66.96-20.61-102.18c-1.46-52.72,7-104.17,20.58-154.9c16.84-62.92,41.25-122.95,69.9-181.33
		c1.63-3.31,1.49-5.46-0.76-8.38c-21.07-27.41-44.49-52.67-69.74-76.24c-67.79-63.29-144.29-114.14-225.84-157.75
		C121.74,437.84,120.79,437.03,119.5,437.34z M685.75,470.48c-0.4-0.13-0.79-0.25-1.19-0.38c-4.82,6.12-9.67,12.21-14.44,18.37
		c-69.04,89.25-129.02,184.02-174.13,287.71c-27.27,62.69-48.73,127.16-55.91,195.61c-3.09,29.47-3.17,58.97,4.53,87.82
		c8.38,31.39,24.92,56.98,55.47,71.26c23.5,10.99,48.3,11.77,73.36,7.78c37.98-6.05,72.9-20.79,106.2-39.4
		c113.13-63.23,198.24-153.81,259.19-267.53c18.25-34.05,31.86-70,37.17-108.6c2.1-15.27,2.41-30.52-2.17-45.54
		c-3.82-12.5-12.46-18.71-25.1-20.27c-13.63-1.68-26.93-0.17-39.95,3.93c-33.37,10.5-67.32,16.83-102.36,11.97
		c-51.77-7.18-89.65-33.82-111.04-82.12c-12.35-27.87-15.23-57.39-13.41-87.54C682.63,492.46,684.21,481.47,685.75,470.48z
		 M839.5,1123.72c2.06,0.14,2.67,0.22,3.28,0.22c71.15-0.01,142.3,0.05,213.46-0.09c12.81-0.03,25.22-2.88,36.57-8.9
		c32.21-17.09,48.56-44,48.57-80.52c0.03-306.89,0.02-613.79,0.02-920.68c0-8.03-0.01-8.05-7.87-5.72
		c-36.86,10.9-69.88,29.45-101.03,51.44c-67.47,47.63-123.25,106.71-169.25,175.09c-27.73,41.22-50.8,84.8-63.99,133.04
		c-5.88,21.48-9.7,43.2-6.82,65.63c2.7,21.04,11.4,29.61,32.52,31.4c13.84,1.17,27.1-1.68,40.27-5.72
		c31.98-9.83,64.57-15.32,98.05-10.49c50.52,7.28,87.84,33.22,109.24,80.14c16.01,35.1,17.33,72.15,12.43,109.72
		c-5.62,43-19.54,83.54-37.89,122.58c-40.76,86.72-98.16,161.29-167.2,227.25C867.2,1100.15,854,1111.6,839.5,1123.72z
		 M2147.46,598.62c0.21,0.04,0.43,0.08,0.64,0.11c0.44,1.58,0.92,3.15,1.33,4.74c24.93,98.49,49.88,196.98,74.69,295.5
		c0.88,3.49,2.25,4.37,5.68,4.34c23.66-0.15,47.33-0.16,70.99,0.01c3.47,0.03,4.8-0.94,5.66-4.35
		c23.96-95.31,48.03-190.59,72.16-285.85c1.24-4.88,1.93-9.98,4.52-15.41c0,100.75,0.03,200.56-0.09,300.37
		c0,4.09,0.9,5.31,5.15,5.26c21.16-0.23,42.33-0.23,63.49,0c4.09,0.04,4.84-1.26,4.84-5.03c-0.09-123.64-0.1-247.27,0-370.91
		c0-3.91-0.62-5.42-5.03-5.4c-35.5,0.2-70.99,0.16-106.49,0.03c-3.66-0.01-5.05,1.03-5.98,4.67
		c-19.14,75.09-38.45,150.13-57.72,225.18c-5.04,19.63-10.1,39.27-15.4,59.91c-0.74-2.57-1.21-4.13-1.63-5.71
		c-24.65-93.24-49.31-186.47-73.86-279.74c-0.9-3.41-2.33-4.34-5.76-4.31c-23,0.16-46.02,0.77-68.99-0.1
		c-24.35-0.93-41.71,20.53-41.65,41.06c0.32,111.97,0.16,223.95,0.07,335.92c0,3.48,0.91,4.48,4.43,4.45
		c20.66-0.16,41.33-0.08,61.99-0.08c6.97,0,6.97,0,6.97-6.73c0-72.15,0-144.3,0-216.45
		C2147.46,652.94,2147.46,625.78,2147.46,598.62z M2803.28,598.66c0.27,0.04,0.54,0.08,0.81,0.11c0,99.64,0.04,199.28-0.11,298.92
		c-0.01,4.67,1.32,5.7,5.78,5.65c20.83-0.24,41.66-0.22,62.49-0.01c4.07,0.04,5.26-0.88,5.26-5.13
		c-0.12-123.64-0.12-247.27-0.01-370.91c0-4.06-0.88-5.31-5.14-5.29c-35.5,0.18-70.99,0.17-106.49,0.01c-3.78-0.02-5,1.25-5.9,4.78
		c-19.78,77.49-39.71,154.95-59.61,232.42c-4.41,17.18-8.81,34.37-13.45,52.44c-0.7-2.17-1.17-3.41-1.51-4.69
		c-24.68-93.4-49.38-186.79-73.95-280.23c-0.92-3.51-2.18-4.76-5.93-4.73c-23,0.19-46.02,0.77-68.98-0.09
		c-24.17-0.91-41.62,20.44-41.56,41.14c0.32,111.97,0.17,223.94,0.07,335.91c0,3.65,1.17,4.35,4.54,4.33c21-0.15,42-0.24,62.99,0.05
		c4.8,0.07,5.99-1.09,5.99-5.95c-0.16-97.64-0.12-195.28-0.12-292.93c0-1.96,0-3.92,0-5.87c3.1,9.3,5.52,18.73,7.91,28.18
		c22.96,90.76,45.93,181.51,68.78,272.29c0.81,3.2,1.97,4.24,5.26,4.22c24-0.14,47.99-0.14,71.99,0.01
		c3.16,0.02,4.23-1.08,4.96-3.97c21.96-87.23,44-174.45,66.04-261.67C2796.65,624.67,2799.97,611.67,2803.28,598.66z
		 M1428.44,783.93c-11.33,0-22.67,0.09-34-0.06c-3.04-0.04-4.24,0.81-3.84,3.96c0.69,5.45,0.98,10.95,1.72,16.38
		c6.27,46.18,30.85,77.6,75.15,93.17c25.83,9.08,52.62,11.43,79.69,11.33c25.06-0.09,49.89-2.47,73.83-10.56
		c29.91-10.1,53.28-27.78,65.81-57.68c8.13-19.42,10.86-39.81,9.31-60.66c-2.86-38.41-22.73-64.1-59.17-76.66
		c-14.3-4.93-28.8-9.3-43.23-13.87c-23.64-7.48-48.11-11.88-71.82-19.09c-13.76-4.19-26.97-9.71-37.99-19.34
		c-8.7-7.6-14.14-16.98-13.18-28.87c1.55-19.1,11.77-31.62,29.85-37.89c13.96-4.84,28.4-5.75,42.91-4.63
		c26.02,2.02,47.49,11.88,60.66,36.02c6.17,11.31,16.26,17.58,29.27,17.98c14.65,0.45,29.32,0.27,43.98,0.45
		c2.65,0.03,3.42-0.9,3.27-3.54c-0.36-6.5-1.18-12.94-2.36-19.32c-8.06-43.57-32.06-73.85-75.08-86.69
		c-43.83-13.09-88.17-12.63-131.99,0.2c-29.32,8.59-51.63,26.41-64.27,54.99c-5.78,13.07-8.59,26.86-10.18,40.99
		c-3.85,34.29,6.7,62.66,34.24,84.16c13.79,10.76,29.23,18.46,45.53,24.53c23.9,8.9,48.94,13.87,73.33,21.08
		c15.3,4.52,31.13,7.44,45.74,14.04c19.63,8.88,27.09,25.79,21.15,46.53c-4.6,16.05-16.73,24.01-31.65,28.2
		c-22.16,6.22-44.75,6.91-67.27,2.34c-31.55-6.39-46.68-22.61-51.27-54.19c-0.44-3.03-1.69-3.36-4.15-3.35
		C1451.11,783.97,1439.78,783.93,1428.44,783.93z M2037.39,653.7c0.03,0,0.05,0,0.08,0c0-42.32-0.05-84.64,0.08-126.96
		c0.01-3.73-0.94-4.75-4.7-4.72c-22.5,0.18-45,0.25-67.49-0.04c-5-0.07-5.91,1.48-5.9,6.15c0.15,75.64,0.08,151.29,0.13,226.93
		c0.01,11.69-0.56,23.31-3.3,34.71c-6.05,25.15-20.18,42.85-46.26,48.99c-16.66,3.93-33.4,3.61-49.91-0.98
		c-18.67-5.2-31.75-16.94-39.36-34.75c-3.29-7.7-5.17-15.77-6.41-24.03c-1.17-7.77-1.29-15.6-1.3-23.43
		c-0.01-75.48,0-150.95-0.02-226.43c0-8.14,0.99-6.98-7.27-7.03c-10.16-0.06-20.33-0.07-30.49,0.02c-2.98,0.03-6,0.24-8.93,0.76
		c-15.47,2.73-31.47,20.94-31.33,41.27c0.45,67.31,0.19,134.62,0.16,201.94c-0.01,13.02,0.84,25.95,3.22,38.76
		c8.95,48.23,36.26,80.77,83.4,95.14c37.54,11.44,75.92,11.6,114.14,3.64c37.96-7.91,67.85-27.64,85.91-62.96
		c10.9-21.32,15.3-44.3,15.47-68.02C2037.6,733.01,2037.39,693.36,2037.39,653.7z M3147.93,746.79c0,50.15,0.09,100.29-0.14,150.44
		c-0.02,5.25,1.52,6.19,6.36,6.13c21.66-0.27,43.32-0.27,64.98,0c5.02,0.06,6.61-1,6.6-6.39c-0.18-100.46-0.11-200.92-0.23-301.38
		c-0.01-4.27,0.88-5.63,5.43-5.6c34.16,0.21,68.32,0.06,102.47,0.19c3.77,0.01,5.15-0.75,5.1-4.88
		c-0.23-19.49-0.19-38.98-0.02-58.48c0.03-3.6-0.74-4.81-4.62-4.8c-86.64,0.12-173.29,0.03-259.93,0.14
		c-20.8,0.03-38.09,17.13-38.74,37.94c-0.25,7.99,0.19,16.01-0.23,23.98c-0.24,4.7,0.92,6.18,5.91,6.14
		c33.82-0.24,67.65-0.02,101.47-0.24c4.74-0.03,5.69,1.42,5.68,5.86C3147.88,646.16,3147.93,696.47,3147.93,746.79z M2994.95,713.29
		c0-61.46,0-122.91,0-184.37c0-1.17-0.07-2.34,0.01-3.5c0.16-2.21-0.5-3.37-3.04-3.34c-14.49,0.18-29.02-0.38-43.46,0.51
		c-16.64,1.02-27.17,11.29-30.35,27.51c-0.91,4.63-1.02,9.26-1.02,13.91c-0.02,111.42,0.01,222.84-0.12,334.26
		c-0.01,4.37,1.4,5.08,5.35,5.05c22.32-0.19,44.64-0.22,66.96,0.02c4.5,0.05,5.79-1.04,5.78-5.69
		C2994.89,836.2,2994.95,774.74,2994.95,713.29z M2204.19,398.89c0.34-0.09,0.68-0.17,1.02-0.26c0.86,1.38,1.75,2.75,2.58,4.14
		c12.12,20.27,24.24,40.55,36.35,60.84c1.19,1.99,2.07,3.88,5.13,3.81c9.99-0.22,19.99-0.16,29.98-0.03
		c2.79,0.03,3.98-0.9,3.86-3.72c-0.12-2.83-0.02-5.66-0.02-8.49c0-36.8,0-73.6,0-110.41c0-6.4-0.01-6.4-6.6-6.4
		c-7.33,0-14.67,0.22-21.98-0.09c-4.01-0.17-5.12,1.14-5.08,5.08c0.18,19.82,0.1,39.63,0.04,59.45c0,1.29,0.83,2.92-0.86,4.02
		c-0.7-1.06-1.37-2.01-1.96-3.01c-12.33-20.54-24.64-41.09-36.99-61.61c-1.06-1.76-1.64-3.97-4.55-3.9
		c-6.82,0.18-13.67-0.18-20.48,0.2c-8.39,0.46-13,5.17-13.79,13.6c-0.29,3.14-0.13,6.32-0.13,9.48
		c-0.01,33.47,0.05,66.94-0.08,100.42c-0.02,4.02,0.94,5.65,5.26,5.42c6.64-0.35,13.32-0.04,19.98-0.1c9.24-0.09,8.32,1.4,8.34-8.12
		C2204.21,439.1,2204.19,418.99,2204.19,398.89z M3029.13,422.43c-5.44,13.26-14.29,18.71-28.43,17.9
		c-13.49-0.77-22.42-7.63-25.81-20.33c-2.94-11-2.44-22.08,0.2-33.1c2.65-11.07,8.64-19.29,20.39-21.36
		c12.23-2.15,23.27,0.08,30.85,11.27c3.46,5.11,8.45,7.33,14.5,7.37c4.83,0.03,9.66,0.01,14.49,0.01c6.67,0,7.18-0.47,5.48-7.21
		c-5.02-19.92-17.49-32.83-37.21-38.57c-9.75-2.84-19.83-2.8-29.76-1.84c-16.64,1.61-31.48,7.6-41.74,21.54
		c-12.78,17.35-15.88,37.22-12.45,57.96c3.22,19.46,11.4,36.81,30.13,45.7c21.37,10.14,43.15,12.19,63.55-3.38
		c1.19-0.91,2-1.62,3.07,0.23c4.83,8.34,12.78,9.07,21.29,8.8c3.15-0.1,3.93-1.19,3.92-4.12c-0.09-21.65-0.11-43.31,0.02-64.96
		c0.02-3.38-1.18-4.2-4.35-4.16c-14.16,0.14-28.32,0.06-42.48,0.06c-13.87,0-13.87,0-12.34,13.99c0.85,7.78,4.69,12.15,12.48,13.34
		C3019.47,422.26,3024.14,422.16,3029.13,422.43z M2822.37,411.97c-3.67-4.44-6.74-8.32-10.02-12.03c-1.73-1.96-0.53-2.81,0.91-3.88
		c3.92-2.89,7.21-6.4,10.07-10.34c10.72-14.7,7.82-43.5-16.28-49.23c-7.57-1.8-15.27-1.91-22.85-0.74
		c-14.85,2.3-23.3,9.82-25.55,22.84c-1.84,10.67-0.78,21.05,6.57,29.73c2.67,3.16,2.16,4.73-1.24,6.69
		c-4.48,2.59-8.31,6.11-11.72,10.03c-15.3,17.58-11.07,47.96,9.22,58.51c18.61,9.68,38.01,8.61,56.28-1.8
		c3.99-2.27,5.73-1.9,7.69,1.45c2,3.41,4.84,4.32,8.72,4.21c9.32-0.27,18.66-0.05,27.99-0.13c1.35-0.01,3.26,0.87,3.95-1.01
		c0.52-1.42-0.96-2.35-1.79-3.34c-6.59-7.95-13.11-15.96-19.85-23.79c-1.93-2.24-2.19-3.74-0.45-6.36
		c5.57-8.4,9.72-17.5,10.24-27.75c0.33-6.6-3.25-10.34-9.83-10.67c-4.99-0.25-10,0.03-14.99-0.19c-2.81-0.12-3.9,0.91-3.97,3.65
		C2825.37,402.35,2824.26,406.68,2822.37,411.97z M2033.86,402.83c0-19.82-0.09-39.65,0.07-59.47c0.03-3.86-0.99-5.25-5.04-5.09
		c-7.99,0.32-16,0.27-23.99,0.01c-3.69-0.12-4.91,0.91-4.84,4.72c0.23,11.82-0.05,23.66,0.16,35.48c0.07,3.74-0.67,5.24-4.86,5.13
		c-11.49-0.31-23-0.31-34.48,0c-4.21,0.12-4.87-1.45-4.81-5.13c0.2-11.49-0.09-22.99,0.16-34.48c0.09-4.19-0.78-6.2-5.46-5.72
		c-3.96,0.41-7.99,0.03-11.99,0.1c-10.4,0.19-16.04,5.2-16.11,15.6c-0.23,36.48-0.08,72.97-0.16,109.45
		c-0.01,3.09,1.16,4.01,4.14,3.95c8.16-0.15,16.34-0.27,24.49,0.04c4.03,0.15,5.13-1.17,5.08-5.1c-0.2-14.82,0.06-29.65-0.18-44.48
		c-0.06-3.87,1.16-4.69,4.78-4.62c11.49,0.23,23,0.27,34.49-0.02c4.05-0.1,4.97,1.18,4.91,5.03c-0.22,14.66,0.07,29.32-0.19,43.98
		c-0.08,4.28,1.33,5.35,5.39,5.2c7.82-0.3,15.67-0.32,23.49,0.01c4.1,0.17,5.04-1.31,5.01-5.12
		C2033.77,442.48,2033.86,422.66,2033.86,402.83z M1585.73,336.26c-30.93-0.12-54.85,17.5-61.73,45.77
		c-3.65,15-3.26,30.07,0.93,44.92c5.32,18.87,17.62,31.47,36.04,37.71c18.61,6.3,37.08,5.08,54.91-3.16
		c16.48-7.61,26.8-20.28,30.65-38.18c1.19-5.56,1.78-11.16,2.36-16.78C1652.96,367.29,1625.2,336.41,1585.73,336.26z M2428.6,336.26
		c-31.08-0.1-55.17,17.8-61.83,46.3c-3.43,14.68-3.04,29.44,0.94,43.97c4.68,17.11,15.29,29.45,31.6,36.36
		c18.86,7.99,38.02,7.5,56.83-0.22c18.01-7.39,29.45-20.56,33.45-39.91c1.22-5.89,1.89-11.83,2.35-17.79
		C2494.95,366.08,2467.55,336.39,2428.6,336.26z M3242.24,421.85c-4.33,0-8.67,0.06-13-0.02c-2.66-0.05-4.02,0.79-3.84,3.75
		c1.03,16.85,7.69,30.15,23.56,37.7c7.32,3.48,15.16,5.03,23.16,5.56c14.76,0.97,29.41,0.41,42.89-6.55
		c15.24-7.87,20.09-21.47,19.17-37.61c-0.82-14.51-9.34-23.39-22.37-28.36c-5.11-1.95-10.45-3.33-15.7-4.92
		c-10.34-3.14-20.76-6.02-30.81-10.06c-3.13-1.26-5.72-3.19-5.68-6.83c0.04-3.7,1.72-6.75,5.23-8.46c1.19-0.58,2.43-1.17,3.71-1.44
		c6.11-1.28,12.25-1.44,18.34,0.03c4.03,0.97,7.42,3.03,9.17,7.04c2.98,6.8,8.61,9.44,15.55,9.74c4.99,0.22,10-0.04,14.99,0.09
		c2.59,0.07,3.6-0.87,3.44-3.5c-1.04-16.58-7.74-32.16-27.79-38.53c-15.34-4.88-30.93-4.25-46.32-0.22
		c-17.3,4.53-28.5,19.05-28.69,36.37c-0.21,18.34,8.67,29.87,27.41,35.6c1.43,0.44,2.89,0.77,4.33,1.19
		c12.13,3.52,24.48,6.34,36.03,11.62c3.75,1.71,6.51,4.37,5.98,8.83c-0.53,4.41-3.82,6.49-7.78,7.41
		c-7.42,1.72-14.92,1.61-22.27-0.26c-5.69-1.45-9.22-5.52-11.82-10.69c-1.19-2.36,0.48-6.06-2.49-7.09
		c-2.54-0.88-5.59-0.33-8.42-0.37C3246.24,421.82,3244.24,421.84,3242.24,421.85z M1773.31,385.49c0-15.77-0.2-28.76,0.11-41.74
		c0.11-4.56-1.41-5.66-5.7-5.48c-7.65,0.33-15.33,0.32-22.97,0c-4.09-0.17-5.06,1.28-5.03,5.12c0.17,17.65,0.11,35.3,0.06,52.95
		c-0.03,8.32,0.11,16.67-0.45,24.96c-0.65,9.53-5.87,15.47-14.04,17.12c-15.62,3.14-25.4-4.46-25.9-20.45
		c-0.3-9.65-0.14-19.31-0.15-28.97c-0.02-15.15-0.15-30.31,0.09-45.46c0.07-4.23-1.29-5.56-5.4-5.25
		c-4.31,0.33-8.66-0.02-12.98,0.12c-9.47,0.32-15.02,5.02-15.05,14.4c-0.08,25.13-1.27,50.3,0.62,75.39
		c1.55,20.63,14.53,34.77,34.72,39.12c10.7,2.3,21.47,2.46,32.27,0.87c22.95-3.39,36.24-16.99,39.03-40.06
		C1774.34,413.02,1772.75,397.84,1773.31,385.49z M3190.59,467.34c4.66,0,9.33-0.14,13.99,0.05c3.48,0.14,4.46-0.83,3.19-4.32
		c-14.78-40.59-29.49-81.21-44.14-121.86c-0.74-2.04-1.63-2.92-3.87-2.88c-7.99,0.13-15.99-0.13-23.98,0.17
		c-6.58,0.25-11.27,3.61-13.59,9.94c-0.97,2.65-1.94,5.31-2.9,7.96c-12.6,35.02-25.21,70.04-37.8,105.06
		c-2.11,5.86-2.1,5.87,4.37,5.88c8.16,0,16.32-0.17,24.48,0.08c3.5,0.11,5.36-0.72,6.22-4.41c1.16-5,3.28-9.78,4.49-14.77
		c0.84-3.47,2.56-4.3,5.93-4.23c11.65,0.21,23.31,0.17,34.97,0.02c3.1-0.04,4.81,0.62,5.61,3.99c1.23,5.16,3.32,10.11,4.63,15.25
		c0.79,3.11,2.1,4.38,5.41,4.15C3181.91,467.11,3186.26,467.34,3190.59,467.34z M1458.02,385.36c-1.87-1.37-2.2-3.08-2.9-4.54
		c-6.23-13.05-12.51-26.08-18.57-39.21c-1.16-2.5-2.5-3.36-5.23-3.32c-10.32,0.17-20.65,0.06-30.97,0.07
		c-6.28,0.01-6.34,0.09-3.21,5.52c13.78,23.92,27.54,47.85,41.41,71.72c1.74,2.99,2.62,5.93,2.58,9.41
		c-0.14,12.65-0.03,25.31-0.08,37.96c-0.01,2.54,0.01,4.51,3.57,4.43c8.82-0.2,17.65-0.17,26.47-0.01c3.06,0.06,3.61-1.33,3.55-3.93
		c-0.12-5.16,0.48-10.38-0.13-15.47c-2.31-19.5,3.08-36.65,13.2-53.3c9.92-16.3,18.03-33.7,26.92-50.63
		c2.98-5.68,2.96-5.69-3.64-5.7c-6.49,0-12.99,0.16-19.48-0.04c-8.74-0.28-14.42,3.57-17.82,11.62
		C1468.72,361.72,1463.36,373.34,1458.02,385.36z M1864.64,417.3c0-15.33,0.07-30.66-0.06-45.99c-0.03-3.18,0.78-4.37,4.19-4.3
		c9.83,0.22,19.66-0.01,29.49,0.13c3.17,0.04,4.49-0.9,4.38-4.27c-0.21-6.49-0.26-13,0.01-19.49c0.16-3.81-0.81-5.22-4.93-5.12
		c-11.99,0.29-23.99,0.1-35.99,0.1c-17.33,0-34.66-0.06-51.99,0.03c-9.59,0.05-14.49,4.41-15.68,13.86
		c-0.39,3.12-0.07,6.33-0.39,9.47c-0.4,4.06,0.98,5.61,5.26,5.47c8.99-0.3,18,0.13,26.99-0.19c4.22-0.15,5.62,0.76,5.58,5.36
		c-0.24,29.99-0.06,59.98-0.21,89.98c-0.02,3.89,0.93,5.26,5,5.09c7.82-0.33,15.67-0.34,23.49,0c4.15,0.18,4.98-1.37,4.93-5.14
		C1864.53,447.3,1864.63,432.3,1864.64,417.3z M2562.64,408.36c0,17.98,0.01,35.96-0.02,53.95c0,2.81-0.2,5.13,3.98,5.11
		c29.97-0.14,59.95-0.12,89.92-0.02c3.26,0.01,3.88-1.35,3.82-4.19c-0.14-6.82-0.23-13.66,0.03-20.48c0.14-3.62-1.2-4.48-4.6-4.45
		c-18.15,0.14-36.3-0.06-54.45,0.16c-4.04,0.05-5.31-0.82-5.29-5.11c0.2-29.97,0.05-59.94,0.18-89.91c0.02-3.82-0.85-5.53-4.99-5.13
		c-3.63,0.35-7.32,0.06-10.98,0.08c-12.62,0.07-17.59,5-17.6,17.54C2562.63,373.39,2562.64,390.87,2562.64,408.36z M2150.19,403.36
		c0-20.15-0.06-40.31,0.06-60.46c0.02-3.4-0.88-4.84-4.5-4.61c-4.48,0.28-8.99-0.02-13.49,0.1c-9.96,0.26-15.46,5.25-15.51,15.05
		c-0.17,36.64-0.05,73.29-0.11,109.93c-0.01,3.01,1.03,4.08,4.08,4.02c8.16-0.17,16.33-0.27,24.48,0.03c4.04,0.15,5.1-1.18,5.07-5.1
		C2150.09,442.67,2150.19,423.02,2150.19,403.36z M2542.16,402.76c0-19.82-0.11-39.64,0.09-59.46c0.04-4.03-1.21-5.3-5.14-5
		c-4.14,0.32-8.33,0.01-12.49,0.09c-10.49,0.22-15.9,5.3-15.93,15.67c-0.12,36.31,0,72.62-0.11,108.93
		c-0.01,3.62,1.36,4.5,4.71,4.42c7.82-0.2,15.67-0.35,23.48,0.04c4.64,0.23,5.51-1.51,5.47-5.72
		C2542.05,442.07,2542.16,422.41,2542.16,402.76z"/>
	<path class="st1" d="M911.44,102.42c-20.74,15.08-41.49,30.15-61.56,46.12c-80.33,63.93-152.79,135.92-219.18,214.11
		c-55.08,64.87-105.22,133.34-149.66,205.95c-1.7,2.77-2.45,4.04-5.31,0.8c-48.91-55.39-105.02-102.6-165.34-144.98
		c-58.6-41.17-120.49-76.72-184.93-107.9c-1.88-0.91-3.59-2.51-5.96-2.15c0-44.66,0-89.31,0-133.97c0.28-0.94,0.68-1.86,0.82-2.82
		c4.79-31.78,22.06-54.22,50.88-68.02c7.7-3.69,16.08-5.13,24.29-7.14C434.15,102.42,672.79,102.42,911.44,102.42z M461.93,458.52
		c42.96,0.01,77.67-34.56,77.68-77.35c0.01-43.28-34.5-77.91-77.63-77.92c-42.93-0.01-77.62,34.54-77.67,77.37
		C384.25,423.88,418.76,458.51,461.93,458.52z"/>
	<path class="st2" d="M119.5,437.34c1.29-0.31,2.24,0.5,3.24,1.04c81.55,43.62,158.05,94.46,225.84,157.75
		c25.25,23.57,48.67,48.82,69.74,76.24c2.25,2.93,2.38,5.07,0.76,8.38c-28.65,58.38-53.06,118.4-69.9,181.33
		c-13.58,50.73-22.05,102.18-20.58,154.9c0.98,35.22,6.77,69.55,20.61,102.18c1.81,4.26,0.88,4.86-3.31,4.85
		c-66.31-0.1-132.62-0.08-198.93-0.06c-9.16,0-18.31,0.15-27.47,0.24C119.5,895.24,119.5,666.29,119.5,437.34z"/>
	<path class="st0" d="M195.5,102.42c-8.21,2.01-16.59,3.45-24.29,7.14c-28.82,13.8-46.09,36.24-50.88,68.02
		c-0.14,0.96-0.54,1.88-0.82,2.82c0-24.91,0.06-49.83-0.08-74.74c-0.01-2.76,0.54-3.34,3.32-3.32
		C146.99,102.47,171.25,102.42,195.5,102.42z"/>
	<path class="st1" d="M685.75,470.48c-1.55,10.99-3.13,21.98-3.79,33.07c-1.82,30.15,1.07,59.67,13.41,87.54
		c21.39,48.3,59.27,74.95,111.04,82.12c35.04,4.86,68.99-1.47,102.36-11.97c13.02-4.1,26.32-5.61,39.95-3.93
		c12.64,1.56,21.28,7.77,25.1,20.27c4.59,15.02,4.27,30.27,2.17,45.54c-5.3,38.6-18.91,74.55-37.17,108.6
		c-60.95,113.72-146.06,204.3-259.19,267.53c-33.31,18.61-68.22,33.35-106.2,39.4c-25.06,3.99-49.86,3.21-73.36-7.78
		c-30.55-14.28-47.09-39.86-55.47-71.26c-7.7-28.85-7.62-58.36-4.53-87.82c7.18-68.45,28.64-132.92,55.91-195.61
		c45.11-103.69,105.09-198.46,174.13-287.71c4.77-6.16,9.62-12.25,14.44-18.37C684.96,470.22,685.36,470.35,685.75,470.48z"/>
	<path class="st2" d="M839.5,1123.72c14.5-12.12,27.7-23.57,40.33-35.64c69.04-65.96,126.43-140.53,167.2-227.25
		c18.35-39.04,32.27-79.58,37.89-122.58c4.91-37.57,3.58-74.62-12.43-109.72c-21.4-46.92-58.72-72.85-109.24-80.14
		c-33.48-4.83-66.07,0.66-98.05,10.49c-13.16,4.05-26.43,6.9-40.27,5.72c-21.13-1.79-29.82-10.36-32.52-31.4
		c-2.88-22.43,0.95-44.15,6.82-65.63c13.2-48.24,36.27-91.82,63.99-133.04c46-68.38,101.78-127.45,169.25-175.09
		c31.15-21.99,64.18-40.55,101.03-51.44c7.87-2.33,7.87-2.3,7.87,5.72c0,306.89,0.01,613.79-0.02,920.68
		c0,36.52-16.35,63.43-48.57,80.52c-11.35,6.02-23.77,8.88-36.57,8.9c-71.15,0.15-142.3,0.09-213.46,0.09
		C842.17,1123.94,841.56,1123.86,839.5,1123.72z M1127.02,445.1c-1.51-44.74-36.72-78.15-80.93-76.79
		c-42.56,1.31-76,37.64-74.58,81.03c1.4,42.5,37.64,75.57,81.32,74.19C1093.98,522.23,1128.4,485.85,1127.02,445.1z"/>
	<path class="st1" d="M2147.46,598.62c0,27.16,0,54.32,0,81.48c0,72.15,0,144.3,0,216.45c0,6.73,0,6.73-6.97,6.73
		c-20.66,0-41.33-0.08-61.99,0.08c-3.51,0.03-4.43-0.96-4.43-4.45c0.09-111.97,0.24-223.95-0.07-335.92
		c-0.06-20.53,17.3-41.99,41.65-41.06c22.96,0.88,45.99,0.27,68.99,0.1c3.43-0.02,4.86,0.91,5.76,4.31
		c24.55,93.27,49.21,186.5,73.86,279.74c0.42,1.58,0.89,3.14,1.63,5.71c5.31-20.64,10.36-40.27,15.4-59.91
		c19.28-75.05,38.58-150.1,57.72-225.18c0.93-3.64,2.32-4.69,5.98-4.67c35.5,0.14,70.99,0.17,106.49-0.03
		c4.42-0.02,5.04,1.48,5.03,5.4c-0.1,123.64-0.1,247.27,0,370.91c0,3.77-0.75,5.07-4.84,5.03c-21.16-0.22-42.33-0.23-63.49,0
		c-4.25,0.05-5.16-1.17-5.15-5.26c0.12-99.81,0.09-199.62,0.09-300.37c-2.59,5.43-3.28,10.53-4.52,15.41
		c-24.13,95.26-48.2,190.54-72.16,285.85c-0.86,3.4-2.19,4.37-5.66,4.35c-23.66-0.17-47.33-0.16-70.99-0.01
		c-3.43,0.02-4.8-0.86-5.68-4.34c-24.81-98.52-49.76-197.01-74.69-295.5c-0.4-1.59-0.88-3.16-1.33-4.74
		C2147.88,598.7,2147.67,598.66,2147.46,598.62z"/>
	<path class="st1" d="M2803.28,598.66c-3.31,13.01-6.63,26.02-9.92,39.03c-22.04,87.22-44.08,174.43-66.04,261.67
		c-0.73,2.88-1.8,3.99-4.96,3.97c-24-0.15-47.99-0.14-71.99-0.01c-3.3,0.02-4.46-1.02-5.26-4.22
		c-22.85-90.78-45.82-181.54-68.78-272.29c-2.39-9.44-4.81-18.87-7.91-28.18c0,1.96,0,3.92,0,5.87c0,97.64-0.04,195.28,0.12,292.93
		c0.01,4.86-1.18,6.01-5.99,5.95c-20.99-0.29-41.99-0.2-62.99-0.05c-3.37,0.02-4.54-0.68-4.54-4.33
		c0.1-111.97,0.26-223.94-0.07-335.91c-0.06-20.7,17.4-42.05,41.56-41.14c22.96,0.86,45.99,0.28,68.98,0.09
		c3.75-0.03,5.01,1.21,5.93,4.73c24.57,93.43,49.26,186.83,73.95,280.23c0.34,1.27,0.8,2.51,1.51,4.69
		c4.63-18.07,9.03-35.25,13.45-52.44c19.9-77.46,39.83-154.92,59.61-232.42c0.9-3.54,2.12-4.8,5.9-4.78
		c35.5,0.15,70.99,0.17,106.49-0.01c4.26-0.02,5.15,1.23,5.14,5.29c-0.11,123.64-0.11,247.27,0.01,370.91
		c0,4.25-1.18,5.17-5.26,5.13c-20.83-0.21-41.66-0.23-62.49,0.01c-4.46,0.05-5.78-0.98-5.78-5.65
		c0.15-99.64,0.11-199.28,0.11-298.92C2803.82,598.73,2803.55,598.7,2803.28,598.66z"/>
	<path class="st1" d="M1428.44,783.93c11.33,0,22.66,0.04,34-0.03c2.47-0.02,3.71,0.31,4.15,3.35c4.59,31.58,19.72,47.8,51.27,54.19
		c22.52,4.56,45.11,3.88,67.27-2.34c14.92-4.19,27.06-12.14,31.65-28.2c5.94-20.74-1.52-37.65-21.15-46.53
		c-14.6-6.6-30.44-9.52-45.74-14.04c-24.39-7.21-49.43-12.18-73.33-21.08c-16.3-6.07-31.74-13.77-45.53-24.53
		c-27.54-21.5-38.08-49.88-34.24-84.16c1.58-14.13,4.39-27.92,10.18-40.99c12.64-28.58,34.96-46.41,64.27-54.99
		c43.82-12.83,88.16-13.29,131.99-0.2c43.02,12.84,67.01,43.12,75.08,86.69c1.18,6.38,2,12.82,2.36,19.32
		c0.15,2.64-0.63,3.57-3.27,3.54c-14.66-0.18-29.33,0-43.98-0.45c-13.01-0.4-23.1-6.67-29.27-17.98
		c-13.17-24.14-34.64-34-60.66-36.02c-14.51-1.12-28.95-0.22-42.91,4.63c-18.08,6.27-28.3,18.79-29.85,37.89
		c-0.96,11.89,4.48,21.27,13.18,28.87c11.01,9.63,24.23,15.16,37.99,19.34c23.71,7.21,48.18,11.61,71.82,19.09
		c14.43,4.56,28.92,8.94,43.23,13.87c36.44,12.57,56.3,38.25,59.17,76.66c1.55,20.85-1.17,41.24-9.31,60.66
		c-12.53,29.9-35.9,47.58-65.81,57.68c-23.94,8.09-48.77,10.47-73.83,10.56c-27.07,0.1-53.87-2.25-79.69-11.33
		c-44.3-15.57-68.88-46.99-75.15-93.17c-0.74-5.44-1.03-10.94-1.72-16.38c-0.4-3.15,0.8-4,3.84-3.96
		C1405.78,784.02,1417.11,783.93,1428.44,783.93z"/>
	<path class="st1" d="M2037.39,653.7c0,39.65,0.21,79.31-0.08,118.96c-0.18,23.72-4.57,46.7-15.47,68.02
		c-18.06,35.33-47.95,55.06-85.91,62.96c-38.22,7.96-76.6,7.81-114.14-3.64c-47.14-14.37-74.45-46.9-83.4-95.14
		c-2.38-12.81-3.23-25.74-3.22-38.76c0.03-67.31,0.29-134.63-0.16-201.94c-0.14-20.32,15.86-38.54,31.33-41.27
		c2.93-0.52,5.95-0.73,8.93-0.76c10.16-0.09,20.33-0.08,30.49-0.02c8.26,0.05,7.27-1.11,7.27,7.03
		c0.02,75.48,0.01,150.95,0.02,226.43c0,7.83,0.13,15.65,1.3,23.43c1.24,8.26,3.13,16.33,6.41,24.03
		c7.61,17.81,20.69,29.55,39.36,34.75c16.51,4.6,33.26,4.91,49.91,0.98c26.07-6.14,40.2-23.84,46.26-48.99
		c2.74-11.41,3.31-23.02,3.3-34.71c-0.05-75.64,0.02-151.29-0.13-226.93c-0.01-4.67,0.9-6.21,5.9-6.15
		c22.49,0.29,44.99,0.22,67.49,0.04c3.76-0.03,4.71,0.99,4.7,4.72c-0.13,42.32-0.08,84.64-0.08,126.96
		C2037.44,653.7,2037.41,653.7,2037.39,653.7z"/>
	<path class="st1" d="M3147.93,746.79c0-50.31-0.06-100.63,0.1-150.94c0.01-4.44-0.93-5.89-5.68-5.86
		c-33.82,0.22-67.65,0-101.47,0.24c-4.99,0.04-6.16-1.44-5.91-6.14c0.42-7.98-0.02-15.99,0.23-23.98
		c0.66-20.81,17.94-37.92,38.74-37.94c86.64-0.11,173.29-0.02,259.93-0.14c3.88-0.01,4.65,1.2,4.62,4.8
		c-0.17,19.49-0.21,38.99,0.02,58.48c0.05,4.13-1.33,4.89-5.1,4.88c-34.16-0.13-68.32,0.02-102.47-0.19
		c-4.55-0.03-5.44,1.33-5.43,5.6c0.12,100.46,0.05,200.92,0.23,301.38c0.01,5.39-1.58,6.45-6.6,6.39c-21.66-0.27-43.32-0.27-64.98,0
		c-4.84,0.06-6.39-0.88-6.36-6.13C3148.02,847.08,3147.93,796.93,3147.93,746.79z"/>
	<path class="st1" d="M2994.95,713.29c0,61.46-0.06,122.91,0.11,184.37c0.01,4.65-1.27,5.74-5.78,5.69
		c-22.32-0.23-44.64-0.2-66.96-0.02c-3.95,0.03-5.35-0.68-5.35-5.05c0.13-111.42,0.1-222.84,0.12-334.26
		c0-4.65,0.12-9.28,1.02-13.91c3.18-16.22,13.7-26.49,30.35-27.51c14.44-0.88,28.97-0.33,43.46-0.51c2.53-0.03,3.19,1.12,3.04,3.34
		c-0.08,1.16-0.01,2.33-0.01,3.5C2994.95,590.37,2994.95,651.83,2994.95,713.29z"/>
	<path class="st1" d="M2204.19,398.89c0,20.11,0.03,40.21-0.01,60.32c-0.02,9.52,0.9,8.04-8.34,8.12
		c-6.66,0.06-13.34-0.25-19.98,0.1c-4.32,0.23-5.27-1.4-5.26-5.42c0.14-33.47,0.07-66.94,0.08-100.42c0-3.16-0.16-6.35,0.13-9.48
		c0.79-8.43,5.4-13.13,13.79-13.6c6.81-0.37,13.65-0.02,20.48-0.2c2.91-0.08,3.49,2.13,4.55,3.9
		c12.34,20.53,24.66,41.08,36.99,61.61c0.6,0.99,1.27,1.94,1.96,3.01c1.69-1.1,0.86-2.74,0.86-4.02
		c0.07-19.82,0.14-39.63-0.04-59.45c-0.04-3.95,1.07-5.25,5.08-5.08c7.32,0.31,14.65,0.09,21.98,0.09c6.59,0,6.6,0,6.6,6.4
		c0,36.8,0,73.6,0,110.41c0,2.83-0.1,5.67,0.02,8.49c0.12,2.82-1.07,3.75-3.86,3.72c-9.99-0.12-19.99-0.18-29.98,0.03
		c-3.06,0.07-3.94-1.82-5.13-3.81c-12.1-20.28-24.22-40.56-36.35-60.84c-0.83-1.4-1.72-2.76-2.58-4.14
		C2204.86,398.71,2204.53,398.8,2204.19,398.89z"/>
	<path class="st1" d="M3029.13,422.43c-4.99-0.27-9.66-0.17-14.22-0.86c-7.79-1.19-11.63-5.56-12.48-13.34
		c-1.53-13.99-1.53-13.99,12.34-13.99c14.16,0,28.32,0.08,42.48-0.06c3.17-0.03,4.37,0.79,4.35,4.16
		c-0.13,21.65-0.11,43.31-0.02,64.96c0.01,2.93-0.77,4.01-3.92,4.12c-8.52,0.27-16.46-0.46-21.29-8.8
		c-1.07-1.85-1.88-1.15-3.07-0.23c-20.4,15.57-42.18,13.52-63.55,3.38c-18.74-8.89-26.91-26.24-30.13-45.7
		c-3.43-20.74-0.32-40.61,12.45-57.96c10.26-13.93,25.09-19.92,41.74-21.54c9.93-0.96,20.01-1.01,29.76,1.84
		c19.73,5.75,32.19,18.65,37.21,38.57c1.7,6.74,1.18,7.21-5.48,7.21c-4.83,0-9.66,0.02-14.49-0.01c-6.05-0.04-11.04-2.26-14.5-7.37
		c-7.58-11.19-18.61-13.42-30.85-11.27c-11.74,2.07-17.74,10.29-20.39,21.36c-2.63,11.01-3.13,22.1-0.2,33.1
		c3.39,12.7,12.32,19.56,25.81,20.33C3014.84,441.14,3023.7,435.69,3029.13,422.43z"/>
	<path class="st1" d="M2822.37,411.97c1.89-5.29,3-9.62,3.12-14.13c0.07-2.74,1.16-3.77,3.97-3.65c4.99,0.22,10-0.06,14.99,0.19
		c6.58,0.33,10.16,4.07,9.83,10.67c-0.52,10.25-4.67,19.35-10.24,27.75c-1.74,2.62-1.47,4.12,0.45,6.36
		c6.74,7.83,13.26,15.83,19.85,23.79c0.82,0.99,2.31,1.92,1.79,3.34c-0.69,1.87-2.6,1-3.95,1.01c-9.33,0.08-18.67-0.14-27.99,0.13
		c-3.88,0.11-6.71-0.8-8.72-4.21c-1.96-3.34-3.7-3.72-7.69-1.45c-18.27,10.41-37.67,11.48-56.28,1.8
		c-20.29-10.55-24.52-40.93-9.22-58.51c3.41-3.92,7.24-7.44,11.72-10.03c3.4-1.96,3.91-3.54,1.24-6.69
		c-7.34-8.68-8.41-19.06-6.57-29.73c2.25-13.02,10.7-20.54,25.55-22.84c7.58-1.17,15.28-1.06,22.85,0.74
		c24.1,5.73,27,34.53,16.28,49.23c-2.87,3.93-6.15,7.44-10.07,10.34c-1.45,1.07-2.64,1.91-0.91,3.88
		C2815.62,403.65,2818.7,407.53,2822.37,411.97z M2792.3,443.4c2.83-0.14,6.5-2.23,9.84-5.12c1.21-1.05,1.52-1.94,0.37-3.3
		c-5.35-6.33-10.65-12.71-15.91-19.12c-1.02-1.24-1.83-0.9-2.96-0.23c-4.96,2.93-7.94,10.93-6.32,17.11
		C2779.02,439.17,2784.31,443.43,2792.3,443.4z M2793.52,360.18c-3.8-0.19-5.49,2.36-5.85,6.07c-0.26,2.65,4.41,10.11,6.18,10.22
		c2.18,0.14,6.47-6.41,6.44-9.84C2800.26,362.32,2798.13,360.16,2793.52,360.18z"/>
	<path class="st1" d="M2033.86,402.83c0,19.82-0.08,39.65,0.07,59.47c0.03,3.81-0.9,5.3-5.01,5.12c-7.82-0.33-15.67-0.31-23.49-0.01
		c-4.06,0.16-5.46-0.91-5.39-5.2c0.26-14.66-0.03-29.32,0.19-43.98c0.06-3.85-0.86-5.13-4.91-5.03
		c-11.49,0.29-22.99,0.24-34.49,0.02c-3.62-0.07-4.85,0.75-4.78,4.62c0.24,14.82-0.02,29.65,0.18,44.48
		c0.05,3.93-1.05,5.25-5.08,5.1c-8.15-0.3-16.33-0.19-24.49-0.04c-2.98,0.06-4.15-0.86-4.14-3.95c0.08-36.48-0.07-72.97,0.16-109.45
		c0.07-10.4,5.71-15.41,16.11-15.6c4-0.07,8.03,0.3,11.99-0.1c4.67-0.48,5.55,1.53,5.46,5.72c-0.25,11.49,0.04,22.99-0.16,34.48
		c-0.07,3.68,0.6,5.25,4.81,5.13c11.49-0.31,23-0.31,34.48,0c4.18,0.11,4.92-1.39,4.86-5.13c-0.21-11.82,0.07-23.66-0.16-35.48
		c-0.08-3.81,1.15-4.84,4.84-4.72c7.99,0.26,16,0.3,23.99-0.01c4.05-0.16,5.07,1.23,5.04,5.09
		C2033.77,363.18,2033.86,383.01,2033.86,402.83z"/>
	<path class="st1" d="M1585.73,336.26c39.47,0.15,67.22,31.03,63.17,70.27c-0.58,5.62-1.17,11.23-2.36,16.78
		c-3.85,17.89-14.17,30.57-30.65,38.18c-17.84,8.24-36.3,9.46-54.91,3.16c-18.42-6.24-30.72-18.83-36.04-37.71
		c-4.19-14.85-4.58-29.92-0.93-44.92C1530.88,353.76,1554.8,336.14,1585.73,336.26z M1555.02,403.06c0.05,7.02,0.6,13.95,3.22,20.57
		c4.38,11.09,12.99,16.64,26.27,16.79c14.09,0.16,23.43-4.99,27.56-16.29c5.28-14.43,5.1-29.11-0.69-43.38
		c-4.57-11.26-13.95-15.39-25.56-15.52c-11.75-0.13-21.19,3.74-26.47,14.97C1555.95,387.45,1555.13,395.2,1555.02,403.06z"/>
	<path class="st1" d="M2428.6,336.26c38.94,0.13,66.35,29.82,63.34,68.71c-0.46,5.96-1.13,11.9-2.35,17.79
		c-4,19.36-15.44,32.53-33.45,39.91c-18.82,7.72-37.97,8.21-56.83,0.22c-16.31-6.91-26.92-19.25-31.6-36.36
		c-3.98-14.53-4.38-29.29-0.94-43.97C2373.44,354.06,2397.52,336.15,2428.6,336.26z M2397.91,405.18c0.19,2.05,0.34,6.05,0.99,9.98
		c0.51,3.09,1.38,6.18,2.54,9.09c4.31,10.83,13.24,16.16,26.68,16.18c13.51,0.02,22.67-5.09,26.76-16.01
		c5.46-14.58,5.28-29.42-0.63-43.83c-4.61-11.24-14.06-15.27-25.67-15.36c-11.76-0.09-21.14,3.87-26.36,15.14
		C2398.85,387.64,2398.06,395.38,2397.91,405.18z"/>
	<path class="st1" d="M3242.24,421.85c2-0.01,4-0.03,6,0c2.83,0.05,5.88-0.51,8.42,0.37c2.97,1.03,1.3,4.73,2.49,7.09
		c2.61,5.16,6.13,9.24,11.82,10.69c7.35,1.87,14.85,1.98,22.27,0.26c3.96-0.92,7.25-3,7.78-7.41c0.53-4.46-2.23-7.11-5.98-8.83
		c-11.55-5.28-23.91-8.1-36.03-11.62c-1.44-0.42-2.9-0.75-4.33-1.19c-18.74-5.73-27.61-17.26-27.41-35.6
		c0.19-17.33,11.39-31.85,28.69-36.37c15.39-4.03,30.98-4.66,46.32,0.22c20.04,6.38,26.74,21.95,27.79,38.53
		c0.17,2.63-0.84,3.57-3.44,3.5c-5-0.13-10,0.13-14.99-0.09c-6.94-0.31-12.57-2.94-15.55-9.74c-1.75-4-5.13-6.06-9.17-7.04
		c-6.09-1.47-12.24-1.3-18.34-0.03c-1.28,0.27-2.51,0.86-3.71,1.44c-3.51,1.7-5.19,4.76-5.23,8.46c-0.04,3.63,2.55,5.57,5.68,6.83
		c10.04,4.04,20.47,6.92,30.81,10.06c5.25,1.59,10.58,2.97,15.7,4.92c13.03,4.97,21.54,13.85,22.37,28.36
		c0.91,16.14-3.94,29.74-19.17,37.61c-13.48,6.96-28.13,7.53-42.89,6.55c-8.01-0.53-15.84-2.08-23.16-5.56
		c-15.87-7.54-22.53-20.84-23.56-37.7c-0.18-2.95,1.18-3.8,3.84-3.75C3233.58,421.92,3237.91,421.85,3242.24,421.85z"/>
	<path class="st1" d="M1773.31,385.49c-0.56,12.35,1.03,27.53-0.79,42.63c-2.78,23.07-16.08,36.68-39.03,40.06
		c-10.8,1.59-21.57,1.44-32.27-0.87c-20.19-4.35-33.16-18.49-34.72-39.12c-1.89-25.09-0.7-50.26-0.62-75.39
		c0.03-9.37,5.58-14.08,15.05-14.4c4.33-0.15,8.68,0.21,12.98-0.12c4.11-0.32,5.46,1.01,5.4,5.25c-0.24,15.15-0.11,30.3-0.09,45.46
		c0.01,9.66-0.15,19.32,0.15,28.97c0.5,15.99,10.28,23.59,25.9,20.45c8.17-1.64,13.39-7.59,14.04-17.12
		c0.56-8.29,0.43-16.64,0.45-24.96c0.06-17.65,0.11-35.3-0.06-52.95c-0.04-3.84,0.94-5.3,5.03-5.12c7.65,0.33,15.33,0.33,22.97,0
		c4.29-0.19,5.81,0.92,5.7,5.48C1773.11,356.73,1773.31,369.72,1773.31,385.49z"/>
	<path class="st1" d="M3190.59,467.34c-4.33,0-8.67-0.22-12.98,0.07c-3.31,0.23-4.62-1.04-5.41-4.15c-1.3-5.15-3.4-10.1-4.63-15.25
		c-0.8-3.36-2.52-4.03-5.61-3.99c-11.65,0.15-23.31,0.19-34.97-0.02c-3.37-0.06-5.09,0.77-5.93,4.23
		c-1.21,4.99-3.33,9.77-4.49,14.77c-0.86,3.7-2.72,4.52-6.22,4.41c-8.15-0.25-16.32-0.07-24.48-0.08c-6.47,0-6.48-0.01-4.37-5.88
		c12.6-35.02,25.2-70.04,37.8-105.06c0.96-2.66,1.92-5.31,2.9-7.96c2.32-6.33,7.02-9.69,13.59-9.94c7.98-0.3,15.98-0.03,23.98-0.17
		c2.24-0.04,3.13,0.84,3.87,2.88c14.65,40.64,29.35,81.26,44.14,121.86c1.27,3.49,0.28,4.46-3.19,4.32
		C3199.92,467.2,3195.25,467.34,3190.59,467.34z M3143.98,377.18c-3.92,12.25-7.4,23.15-10.91,34.03c-0.63,1.95-1.79,3.94,1.87,3.89
		c6.31-0.08,12.63-0.03,18.95-0.02c1.61,0,2.57-0.31,1.9-2.3C3151.94,401.33,3148.17,389.86,3143.98,377.18z"/>
	<path class="st1" d="M1458.02,385.36c5.35-12.02,10.7-23.64,15.69-35.42c3.4-8.04,9.08-11.89,17.82-11.62
		c6.49,0.2,12.99,0.04,19.48,0.04c6.59,0,6.62,0.02,3.64,5.7c-8.89,16.93-17.01,34.33-26.92,50.63
		c-10.13,16.65-15.52,33.8-13.2,53.3c0.6,5.09,0.01,10.31,0.13,15.47c0.06,2.6-0.49,3.99-3.55,3.93
		c-8.82-0.16-17.65-0.19-26.47,0.01c-3.56,0.08-3.58-1.88-3.57-4.43c0.05-12.65-0.06-25.31,0.08-37.96
		c0.04-3.48-0.84-6.42-2.58-9.41c-13.87-23.87-27.63-47.8-41.41-71.72c-3.13-5.43-3.07-5.51,3.21-5.52
		c10.32-0.01,20.65,0.1,30.97-0.07c2.73-0.04,4.08,0.81,5.23,3.32c6.06,13.13,12.34,26.16,18.57,39.21
		C1455.81,382.29,1456.15,383.99,1458.02,385.36z"/>
	<path class="st1" d="M1864.63,417.3c0,15-0.11,29.99,0.08,44.99c0.05,3.78-0.78,5.32-4.93,5.14c-7.82-0.34-15.67-0.33-23.49,0
		c-4.07,0.17-5.02-1.2-5-5.09c0.15-29.99-0.03-59.99,0.21-89.98c0.04-4.61-1.36-5.51-5.58-5.36c-8.99,0.31-18-0.11-26.99,0.19
		c-4.28,0.14-5.67-1.41-5.26-5.47c0.31-3.14-0.01-6.35,0.39-9.47c1.19-9.45,6.09-13.81,15.68-13.86
		c17.33-0.09,34.66-0.03,51.99-0.03c12,0,24,0.18,35.99-0.1c4.12-0.1,5.09,1.31,4.93,5.12c-0.27,6.49-0.23,13-0.01,19.49
		c0.11,3.37-1.2,4.31-4.38,4.27c-9.83-0.14-19.67,0.09-29.49-0.13c-3.41-0.08-4.21,1.11-4.19,4.3
		C1864.71,386.64,1864.64,401.97,1864.63,417.3z"/>
	<path class="st1" d="M2562.64,408.36c0-17.48-0.02-34.96,0.01-52.45c0.02-12.54,4.98-17.47,17.6-17.54
		c3.66-0.02,7.35,0.28,10.98-0.08c4.15-0.4,5.01,1.31,4.99,5.13c-0.13,29.97,0.02,59.94-0.18,89.91c-0.03,4.28,1.24,5.16,5.29,5.11
		c18.15-0.22,36.3-0.02,54.45-0.16c3.4-0.03,4.74,0.83,4.6,4.45c-0.27,6.82-0.17,13.65-0.03,20.48c0.06,2.84-0.56,4.2-3.82,4.19
		c-29.97-0.1-59.95-0.13-89.92,0.02c-4.18,0.02-3.98-2.3-3.98-5.11C2562.66,444.32,2562.64,426.34,2562.64,408.36z"/>
	<path class="st1" d="M2150.19,403.36c0,19.65-0.1,39.31,0.08,58.96c0.04,3.92-1.03,5.25-5.07,5.1c-8.15-0.3-16.32-0.2-24.48-0.03
		c-3.05,0.06-4.09-1.01-4.08-4.02c0.06-36.64-0.06-73.29,0.11-109.93c0.05-9.8,5.55-14.78,15.51-15.05
		c4.49-0.12,9.01,0.18,13.49-0.1c3.62-0.23,4.52,1.21,4.5,4.61C2150.13,363.06,2150.19,383.21,2150.19,403.36z"/>
	<path class="st1" d="M2542.16,402.76c0,19.65-0.11,39.31,0.09,58.96c0.04,4.22-0.83,5.96-5.47,5.72
		c-7.81-0.39-15.66-0.24-23.48-0.04c-3.35,0.08-4.72-0.79-4.71-4.42c0.1-36.31-0.01-72.62,0.11-108.93
		c0.03-10.36,5.44-15.45,15.93-15.67c4.16-0.09,8.35,0.22,12.49-0.09c3.93-0.3,5.18,0.97,5.14,5
		C2542.06,363.12,2542.16,382.94,2542.16,402.76z"/>
	<path class="st0" d="M461.93,458.52c-43.17-0.01-77.68-34.63-77.62-77.9c0.05-42.83,34.74-77.39,77.67-77.37
		c43.13,0.01,77.63,34.64,77.63,77.92C539.6,423.95,504.89,458.52,461.93,458.52z"/>
	<path class="st0" d="M1127.02,445.1c1.37,40.75-33.04,77.13-74.19,78.43c-43.68,1.38-79.92-31.69-81.32-74.19
		c-1.43-43.39,32.01-79.72,74.58-81.03C1090.3,366.95,1125.51,400.36,1127.02,445.1z"/>
	<path class="st0" d="M2792.3,443.4c-7.99,0.03-13.28-4.22-14.97-10.66c-1.63-6.18,1.36-14.18,6.32-17.11
		c1.12-0.66,1.94-1.01,2.96,0.23c5.26,6.41,10.56,12.78,15.91,19.12c1.15,1.36,0.85,2.25-0.37,3.3
		C2798.79,441.17,2795.12,443.25,2792.3,443.4z"/>
	<path class="st0" d="M2793.52,360.18c4.61-0.03,6.73,2.14,6.76,6.46c0.03,3.43-4.26,9.98-6.44,9.84
		c-1.76-0.11-6.43-7.57-6.18-10.22C2788.03,362.55,2789.73,359.99,2793.52,360.18z"/>
	<path class="st0" d="M1555.02,403.07c0.11-7.87,0.93-15.61,4.34-22.85c5.28-11.23,14.72-15.1,26.47-14.97
		c11.61,0.13,20.99,4.25,25.56,15.52c5.79,14.27,5.97,28.95,0.69,43.38c-4.13,11.3-13.47,16.45-27.56,16.29
		c-13.28-0.15-21.89-5.7-26.27-16.79C1555.62,417.01,1555.07,410.08,1555.02,403.07z"/>
	<path class="st0" d="M2397.91,405.18c0.15-9.8,0.94-17.54,4.3-24.81c5.22-11.27,14.6-15.22,26.36-15.14
		c11.61,0.08,21.06,4.12,25.67,15.36c5.91,14.41,6.09,29.25,0.63,43.83c-4.09,10.92-13.25,16.03-26.76,16.01
		c-13.44-0.02-22.36-5.36-26.68-16.18c-1.16-2.91-2.03-6-2.54-9.09C2398.25,411.24,2398.1,407.23,2397.91,405.18z"/>
	<path class="st0" d="M3143.98,377.18c4.2,12.68,7.97,24.15,11.8,35.6c0.67,1.99-0.29,2.3-1.9,2.3c-6.32-0.01-12.63-0.06-18.95,0.02
		c-3.66,0.05-2.5-1.94-1.87-3.89C3136.57,400.33,3140.05,389.43,3143.98,377.18z"/>
</g>
</svg>
